<?xml version="1.0" standalone="no"?>
<!DOCTYPE svg PUBLIC "-//W3C//DTD SVG 1.1//EN" "http://www.w3.org/Graphics/SVG/1.1/DTD/svg11.dtd" >
<svg>
<metadata>
Created by FontForge 20110222 at Fri Oct 18 20:46:49 2013
 By Orthosie Webhosting
Copyright (c) The Font Bureau, Inc., 2003. All rights reserved.
</metadata>
<defs>
<font id="GriffithGothicLight" horiz-adv-x="500" >
  <font-face 
    font-family="GriffithGothicLight"
    font-weight="300"
    font-stretch="normal"
    units-per-em="1000"
    panose-1="2 0 6 3 4 0 0 2 0 4"
    ascent="800"
    descent="-200"
    x-height="513"
    cap-height="720"
    bbox="-64 -193 1179 948"
    underline-thickness="20"
    underline-position="-113"
    unicode-range="U+0020-FB02"
  />
<missing-glyph 
 />
    <glyph glyph-name="fi" unicode="fi" horiz-adv-x="549" 
d="M477 637h-81v85h81v-85zM470 0h-67v517h67v-517zM339 692q-36 19 -82 19q-70 0 -70 -86v-113h129v-48h-129v-464h-66v464h-104v48h104v110q0 67 34.5 102t95.5 35q51 0 88 -13v-54z" />
    <glyph glyph-name="fl" unicode="fl" horiz-adv-x="549" 
d="M470 0h-67v738l67 23v-761zM339 692q-36 19 -82 19q-70 0 -70 -86v-113h129v-48h-129v-464h-66v464h-104v48h104v110q0 67 34.5 102t95.5 35q51 0 88 -13v-54z" />
    <glyph glyph-name="f_f_l" unicode="ffl" horiz-adv-x="831" 
d="M752 0h-67v738l67 23v-761zM621 692q-36 19 -82 19q-70 0 -70 -86v-113h129v-48h-129v-464h-66v464h-216v-464h-66v464h-104v48h104v110q0 67 34.5 102t95.5 35q51 0 88 -13v-54q-36 19 -82 19q-70 0 -70 -86v-113h216v110q0 67 34.5 102t95.5 35q51 0 88 -13v-54z" />
    <glyph glyph-name="f_f_i" unicode="ffi" horiz-adv-x="831" 
d="M759 637h-81v85h81v-85zM752 0h-67v517h67v-517zM621 692q-36 19 -82 19q-70 0 -70 -86v-113h129v-48h-129v-464h-66v464h-216v-464h-66v464h-104v48h104v110q0 67 34.5 102t95.5 35q51 0 88 -13v-54q-36 19 -82 19q-70 0 -70 -86v-113h216v110q0 67 34.5 102t95.5 35
q51 0 88 -13v-54z" />
    <glyph glyph-name="f_f" unicode="ff" horiz-adv-x="607" 
d="M621 692q-36 19 -82 19q-70 0 -70 -86v-113h129v-48h-129v-464h-66v464h-216v-464h-66v464h-104v48h104v110q0 67 34.5 102t95.5 35q51 0 88 -13v-54q-36 19 -82 19q-70 0 -70 -86v-113h216v110q0 67 34.5 102t95.5 35q51 0 88 -13v-54z" />
    <glyph glyph-name=".notdef" 
 />
    <glyph glyph-name=".null" horiz-adv-x="0" 
 />
    <glyph glyph-name="nonmarkingreturn" horiz-adv-x="333" 
 />
    <glyph glyph-name="space" unicode=" " horiz-adv-x="252" 
 />
    <glyph glyph-name="space" unicode="&#xa0;" horiz-adv-x="252" 
 />
    <glyph glyph-name="exclam" unicode="!" horiz-adv-x="242" 
d="M163 720l-25 -513h-34l-25 513h84zM170 42q0 -21 -14 -35t-35 -14t-35 14t-14 35t14 34.5t35 13.5t35 -13.5t14 -34.5z" />
    <glyph glyph-name="quotedbl" unicode="&#x22;" horiz-adv-x="334" 
d="M278 720l-18 -215h-38l-18 215h74zM129 720l-17 -215h-39l-17 215h73z" />
    <glyph glyph-name="numbersign" unicode="#" horiz-adv-x="611" 
d="M583 463h-121l-35 -206h122v-54h-131l-34 -203h-48l34 203h-182l-34 -203h-48l34 203h-112v54h121l35 206h-122v54h131l34 203h48l-34 -203h182l34 203h48l-34 -203h112v-54zM414 463h-182l-35 -206h182z" />
    <glyph glyph-name="dollar" unicode="$" horiz-adv-x="547" 
d="M509 188q0 -84 -59.5 -134t-150.5 -55v-94h-47v95q-132 8 -218 98l40 45q79 -84 180 -92v300q-103 34 -150 79t-47 118q0 74 54 122t141 51v41h47v-42q107 -9 187 -87l-40 -45q-69 70 -149 81v-271q118 -41 165 -87.5t47 -122.5zM254 412v258q-64 -2 -99 -33.5t-35 -84.5
q0 -50 31.5 -82t102.5 -58zM446 184q0 54 -32 87.5t-117 65.5v-287q70 5 109.5 39.5t39.5 94.5z" />
    <glyph glyph-name="percent" unicode="%" horiz-adv-x="830" 
d="M797 186q0 -86 -46.5 -139.5t-116.5 -53.5t-115.5 53t-45.5 140q0 86 46.5 139t116.5 53t115.5 -53t45.5 -139zM666 720l-231 -369l-208 -351h-63l232 369l208 351h62zM358 534q0 -86 -46.5 -139t-116.5 -53t-115.5 53t-45.5 139t46.5 139.5t116.5 53.5t115.5 -53
t45.5 -140zM739 185q0 67 -28 106.5t-76 39.5t-76 -39t-28 -105q0 -67 28 -107t76 -40t76 39.5t28 105.5zM300 533q0 67 -28 107t-76 40q-49 0 -77 -39.5t-28 -105.5q0 -67 28 -106.5t77 -39.5q48 0 76 39t28 105z" />
    <glyph glyph-name="ampersand" unicode="&#x26;" horiz-adv-x="673" 
d="M676 3q-30 -9 -59 -9q-47 0 -83 18t-81 67q-91 -89 -201 -89q-97 0 -158 56.5t-61 145.5q0 70 38.5 123.5t132.5 101.5q-62 96 -62 167q0 64 43.5 106t111.5 42q64 0 100.5 -41t36.5 -98q0 -107 -149 -187q90 -138 175 -241q67 88 109 223l54 -25q-48 -142 -128 -240
q40 -44 68 -60t56 -16q30 0 57 9v-53zM373 591q0 41 -21 68t-57 27q-44 0 -67 -28t-23 -71q0 -63 52 -143q62 32 89 67t27 80zM419 119q-89 109 -188 257q-69 -37 -99.5 -80t-30.5 -97q0 -67 44 -112t112 -45q87 0 162 77z" />
    <glyph glyph-name="quotesingle" unicode="'" horiz-adv-x="186" 
d="M130 720l-17 -215h-40l-17 215h74z" />
    <glyph glyph-name="parenleft" unicode="(" horiz-adv-x="314" 
d="M282 -95h-59q-166 185 -166 415t166 415h59q-154 -186 -154 -415t154 -415z" />
    <glyph glyph-name="parenright" unicode=")" horiz-adv-x="314" 
d="M257 320q0 -231 -167 -415h-58q153 185 153 415t-153 415h58q167 -184 167 -415z" />
    <glyph glyph-name="asterisk" unicode="*" horiz-adv-x="440" 
d="M400 570l-158 -31l112 -118l-53 -39l-81 144l-81 -144l-53 39l112 118l-158 31l21 62l146 -71l-20 159h66l-20 -159l147 70z" />
    <glyph glyph-name="plus" unicode="+" horiz-adv-x="600" 
d="M554 326h-224v-225h-60v225h-224v58h224v225h60v-225h224v-58z" />
    <glyph glyph-name="comma" unicode="," horiz-adv-x="186" 
d="M142 96l-69 -215h-42l34 215h77z" />
    <glyph glyph-name="hyphen" unicode="-" horiz-adv-x="309" 
d="M271 250h-233v61h233v-61z" />
    <glyph glyph-name="hyphen" unicode="&#xad;" horiz-adv-x="309" 
d="M271 250h-233v61h233v-61z" />
    <glyph glyph-name="period" unicode="." horiz-adv-x="186" 
d="M142 43q0 -22 -14 -36t-35 -14q-22 0 -36 14t-14 36q0 21 14 35t36 14q21 0 35 -14t14 -35z" />
    <glyph glyph-name="slash" unicode="/" horiz-adv-x="379" 
d="M362 735l-309 -830h-66l309 830h66z" />
    <glyph glyph-name="zero" unicode="0" horiz-adv-x="596" 
d="M543 352q0 -167 -65.5 -265.5t-179.5 -98.5t-180 98t-66 265v17q0 167 66 265.5t180 98.5t179.5 -98t65.5 -265v-17zM471 346v26q0 136 -44.5 220t-128.5 84q-85 0 -129.5 -83.5t-44.5 -218.5v-26q0 -136 44.5 -220t129.5 -84q84 0 128.5 83.5t44.5 218.5z" />
    <glyph glyph-name="one" unicode="1" horiz-adv-x="443" 
d="M419 0h-367v50h152v620h-164v50h232v-670h147v-50z" />
    <glyph glyph-name="two" unicode="2" horiz-adv-x="554" 
d="M496 0h-437v46q27 85 78.5 148t148.5 137q70 53 101 97t31 104q0 65 -36 105t-102 40q-59 0 -98.5 -32.5t-74.5 -104.5l-53 26q78 166 229 166q99 0 151.5 -56t52.5 -142q0 -77 -38 -129.5t-126 -117.5q-83 -61 -128.5 -115t-63.5 -118h365v-54z" />
    <glyph glyph-name="three" unicode="3" horiz-adv-x="519" 
d="M478 252q0 -120 -131 -190t-327 -68v53q174 1 281 55t107 149q0 56 -33.5 84.5t-92.5 28.5q-51 0 -101 -16l-18 47q111 44 158.5 83t47.5 97q0 47 -29 75t-81 28q-85 0 -172 -93l-39 38q102 109 218 109q81 0 126.5 -40.5t45.5 -106.5q0 -61 -41.5 -104t-122.5 -76l2 -4
q88 11 145 -27.5t57 -121.5z" />
    <glyph glyph-name="four" unicode="4" horiz-adv-x="574" 
d="M536 203h-95v-203h-69v203h-333v66l301 451h101v-470h95v-47zM372 250v411h-13l-266 -398v-13h279z" />
    <glyph glyph-name="five" unicode="5" horiz-adv-x="540" 
d="M495 243q0 -120 -77.5 -186.5t-191.5 -66.5q-100 0 -188 39l19 55q81 -38 169 -38q91 0 144.5 52.5t53.5 142.5v3q0 78 -37.5 119t-106.5 41q-70 0 -135 -60h-72l39 376h344v-57h-293l-29 -270h9q35 33 69.5 49t85.5 16q90 0 143.5 -55t53.5 -155v-5z" />
    <glyph glyph-name="six" unicode="6" horiz-adv-x="558" 
d="M526 224q0 -105 -69.5 -170.5t-172.5 -65.5q-106 0 -171 67.5t-65 191.5t60.5 248.5t169.5 224.5h88q-99 -82 -163.5 -179.5t-80.5 -184.5h7q74 92 183 92q93 0 153.5 -60.5t60.5 -163.5zM457 221q0 80 -44 127.5t-119 47.5q-76 0 -126 -51t-50 -125q0 -80 47.5 -130
t120.5 -50q74 0 122.5 50t48.5 131z" />
    <glyph glyph-name="seven" unicode="7" horiz-adv-x="495" 
d="M478 675q-97 -135 -181 -323t-117 -352h-72q31 149 114.5 337.5t181.5 325.5h-383v57h457v-45z" />
    <glyph glyph-name="eight" unicode="8" horiz-adv-x="586" 
d="M537 195q0 -95 -71.5 -151t-172.5 -56q-102 0 -173.5 55t-71.5 150q0 73 42.5 122t107.5 67v7q-57 18 -93.5 59t-36.5 101q0 81 64.5 132t160.5 51t160 -50t64 -131q0 -60 -36.5 -101.5t-92.5 -60.5v-7q65 -18 107 -66t42 -121zM448 542q0 62 -42.5 100t-112.5 38
q-71 0 -113.5 -37.5t-42.5 -98.5q0 -63 45 -101t111 -38t110.5 37t44.5 100zM468 198q0 75 -50 119t-125 44t-125 -43t-50 -118q0 -74 49 -117t126 -43q76 0 125.5 42t49.5 116z" />
    <glyph glyph-name="nine" unicode="9" horiz-adv-x="558" 
d="M510 473q0 -124 -60.5 -248.5t-169.5 -224.5h-88q99 82 163 179.5t80 184.5h-6q-74 -92 -183 -92q-93 0 -154 60.5t-61 163.5q0 105 70 170.5t173 65.5q106 0 171 -67.5t65 -191.5zM440 500q0 80 -47.5 130t-120.5 50q-74 0 -122.5 -50t-48.5 -131q0 -80 44 -127.5
t119 -47.5q76 0 126 51t50 125z" />
    <glyph glyph-name="colon" unicode=":" horiz-adv-x="204" 
d="M152 472q0 -22 -14 -36t-36 -14t-35.5 14t-13.5 36q0 21 13.5 35t35.5 14t36 -14t14 -35zM152 43q0 -22 -14 -36t-36 -14t-35.5 14t-13.5 36q0 21 13.5 35t35.5 14t36 -14t14 -35z" />
    <glyph glyph-name="semicolon" unicode=";" horiz-adv-x="204" 
d="M152 472q0 -22 -14 -36t-35 -14q-22 0 -36 14t-14 36q0 21 14 35t36 14q21 0 35 -14t14 -35zM142 96l-69 -215h-42l34 215h77z" />
    <glyph glyph-name="less" unicode="&#x3c;" horiz-adv-x="600" 
d="M543 101l-494 224v60l494 224v-64l-427 -190l427 -190v-64z" />
    <glyph glyph-name="equal" unicode="=" horiz-adv-x="600" 
d="M541 443h-482v62h482v-62zM541 205h-482v62h482v-62z" />
    <glyph glyph-name="greater" unicode="&#x3e;" horiz-adv-x="600" 
d="M551 325l-494 -224v64l427 190l-427 190v64l494 -224v-60z" />
    <glyph glyph-name="question" unicode="?" horiz-adv-x="442" 
d="M397 572q0 -54 -21.5 -90t-80.5 -92q-42 -41 -56.5 -76t-15.5 -107h-44q-3 89 11 131.5t63 88.5q40 39 57 71.5t17 70.5q0 48 -29 78t-79 30q-53 0 -86.5 -26t-58.5 -84l-53 24q60 141 201 141q79 0 127 -45.5t48 -114.5zM249 42q0 -21 -13.5 -35t-34.5 -14t-35 14
t-14 35t14 34.5t35 13.5t34.5 -13.5t13.5 -34.5z" />
    <glyph glyph-name="at" unicode="@" horiz-adv-x="1005" 
d="M947 333q0 -129 -69.5 -215.5t-160.5 -86.5q-57 0 -87.5 32.5t-33.5 89.5h-5q-74 -122 -165 -122q-60 0 -95.5 45.5t-35.5 124.5q0 125 56.5 219t140.5 94q91 0 130 -120l5 -1l20 119l59 -19l-53 -300q-10 -56 9.5 -92.5t68.5 -36.5q69 0 123.5 77.5t54.5 189.5
q0 168 -108 268.5t-281 100.5q-178 0 -300.5 -126t-122.5 -308q0 -191 113.5 -308.5t300.5 -117.5q163 0 297 73l16 -27q-145 -78 -315 -78q-203 0 -326.5 125.5t-123.5 331.5q0 97 37 184t99.5 149t148 98t179.5 36q182 0 303 -110.5t121 -288.5zM612 317q0 59 -29.5 104.5
t-76.5 45.5q-63 0 -106 -75.5t-43 -185.5q0 -61 24 -96.5t67 -35.5q61 0 112.5 78t51.5 165z" />
    <glyph glyph-name="A" unicode="A" horiz-adv-x="666" 
d="M638 0h-73l-66 192h-335l-66 -192h-70l256 724h98zM483 244l-147 423h-9l-147 -423h303z" />
    <glyph glyph-name="B" unicode="B" horiz-adv-x="610" 
d="M566 200q0 -95 -67.5 -147.5t-175.5 -52.5h-239v720h244q97 0 153 -46t56 -125q0 -123 -130 -158v-4q159 -34 159 -187zM467 543q0 60 -39 91.5t-109 31.5h-167v-255h161q72 0 113 33.5t41 98.5zM496 202q0 158 -180 158h-164v-306h165q83 0 131 37.5t48 110.5z" />
    <glyph glyph-name="C" unicode="C" horiz-adv-x="579" 
d="M540 206q-23 -102 -80.5 -160t-151.5 -58q-119 0 -187 98t-68 267v13q0 169 68 267.5t188 98.5q180 0 226 -204l-65 -19q-40 167 -161 167q-90 0 -137 -83.5t-47 -220.5v-22q0 -138 47 -222t138 -84q126 0 165 179z" />
    <glyph glyph-name="D" unicode="D" horiz-adv-x="621" 
d="M569 356q0 -169 -82 -262.5t-231 -93.5h-172v720h176q149 0 229 -93t80 -261v-10zM496 351v17q0 145 -61.5 220.5t-179.5 75.5h-100v-608h104q113 0 175 76t62 219z" />
    <glyph glyph-name="E" unicode="E" horiz-adv-x="556" 
d="M517 0h-433v720h421v-57h-350v-259h292v-55h-292v-292h362v-57z" />
    <glyph glyph-name="F" unicode="F" horiz-adv-x="525" 
d="M501 663h-345v-275h277v-56h-277v-332h-72v720h417v-57z" />
    <glyph glyph-name="G" unicode="G" horiz-adv-x="618" 
d="M560 0h-40l-5 209h-5q-25 -108 -74.5 -164.5t-136.5 -56.5q-113 0 -179.5 98.5t-66.5 266.5v13q0 168 68 267t185 99q170 0 227 -189l-66 -21q-45 154 -161 154q-87 0 -134 -83.5t-47 -220.5v-22q0 -137 47.5 -221.5t132.5 -84.5q148 0 173 248h-163v42h245v-334z" />
    <glyph glyph-name="H" unicode="H" horiz-adv-x="627" 
d="M543 0h-72v347h-315v-347h-72v720h72v-313h315v313h72v-720z" />
    <glyph glyph-name="I" unicode="I" horiz-adv-x="387" 
d="M332 0h-277v38h103v644h-103v38h277v-38h-103v-644h103v-38z" />
    <glyph glyph-name="J" unicode="J" horiz-adv-x="486" 
d="M408 201q0 -101 -49.5 -157t-140.5 -56q-187 0 -193 194l67 21q3 -158 128 -158q54 0 85 38t31 115v522h72v-519z" />
    <glyph glyph-name="K" unicode="K" horiz-adv-x="591" 
d="M593 0h-85l-320 389v2l305 329h83l-308 -328zM156 0h-72v720h72v-720z" />
    <glyph glyph-name="L" unicode="L" horiz-adv-x="510" 
d="M493 0h-409v720h72v-661h337v-59z" />
    <glyph glyph-name="M" unicode="M" horiz-adv-x="830" 
d="M746 0h-69v654h-10l-213 -654h-81l-213 654h-10v-654h-66v720h124l204 -636h8l204 636h122v-720z" />
    <glyph glyph-name="N" unicode="N" horiz-adv-x="644" 
d="M560 0h-89l-313 628h-7v-628h-67v720h95l306 -615h8v615h67v-720z" />
    <glyph glyph-name="O" unicode="O" horiz-adv-x="617" 
d="M564 354q0 -169 -68 -267.5t-188 -98.5q-119 0 -187 98t-68 267v13q0 168 68 267t187 99q120 0 188 -98t68 -267v-13zM491 348v22q0 139 -46.5 222.5t-136.5 83.5q-89 0 -136 -83t-47 -221v-22q0 -139 47 -222.5t136 -83.5q90 0 136.5 82.5t46.5 221.5z" />
    <glyph glyph-name="P" unicode="P" horiz-adv-x="571" 
d="M531 515q0 -101 -62.5 -155t-177.5 -54h-135v-306h-72v720h212q112 0 173.5 -53t61.5 -152zM460 513q0 74 -43.5 113.5t-127.5 39.5h-135v-305h139q81 0 124 38.5t43 113.5z" />
    <glyph glyph-name="Q" unicode="Q" horiz-adv-x="617" 
d="M604 -99q-16 -5 -41 -5q-38 0 -62 13.5t-49 49.5l-38 55q-47 -26 -106 -26q-119 0 -187 98t-68 267v13q0 168 68 267t187 99q120 0 188 -98t68 -267v-13q0 -216 -108 -313l38 -53q32 -41 71 -41q17 0 39 5v-51zM491 345v25q0 139 -46.5 222.5t-136.5 83.5q-89 0 -136 -83
t-47 -221v-25q0 -139 47 -223t136 -84q44 0 78 20l-92 135l32 21l91 -126q74 74 74 255z" />
    <glyph glyph-name="R" unicode="R" horiz-adv-x="598" 
d="M560 0h-80l-202 320h-122v-320h-72v720h223q112 0 172.5 -50.5t60.5 -148.5q0 -86 -48.5 -135.5t-140.5 -58.5zM469 519q0 147 -171 147h-144v-293h148q167 0 167 146z" />
    <glyph glyph-name="S" unicode="S" horiz-adv-x="565" 
d="M517 183q0 -92 -65 -143.5t-162 -51.5q-188 0 -247 164l54 33q51 -141 194 -141q69 0 114 35.5t45 97.5q0 60 -36.5 95t-139.5 69q-115 37 -162 85.5t-47 127.5q0 75 57 126.5t149 51.5q161 0 221 -139l-53 -34q-56 117 -169 117q-64 0 -100.5 -34t-36.5 -82
q0 -56 36.5 -89.5t134.5 -66.5q120 -39 166.5 -89t46.5 -132z" />
    <glyph glyph-name="T" unicode="T" horiz-adv-x="561" 
d="M542 661h-226v-661h-71v661h-225v59h522v-59z" />
    <glyph glyph-name="U" unicode="U" horiz-adv-x="625" 
d="M546 247q0 -131 -63.5 -195t-170.5 -64q-106 0 -169.5 64t-63.5 195v473h71v-472q0 -104 44 -153.5t121 -49.5q164 0 164 199v476h67v-473z" />
    <glyph glyph-name="V" unicode="V" horiz-adv-x="616" 
d="M588 720l-238 -727h-84l-238 727h74l205 -654h5l205 654h71z" />
    <glyph glyph-name="W" unicode="W" horiz-adv-x="959" 
d="M919 720l-192 -726h-82l-166 642h-9l-164 -642h-82l-193 726h74l159 -645h7l161 645h88l162 -645h8l158 645h71z" />
    <glyph glyph-name="X" unicode="X" horiz-adv-x="627" 
d="M598 0h-81l-206 317l-208 -317h-73l246 368l-231 352h80l191 -294l193 294h73l-231 -345z" />
    <glyph glyph-name="Y" unicode="Y" horiz-adv-x="616" 
d="M599 720l-255 -442v-278h-72v277l-255 443h78l216 -383l215 383h73z" />
    <glyph glyph-name="Z" unicode="Z" horiz-adv-x="547" 
d="M510 0h-474v49l393 614h-374v57h455v-49l-393 -614h393v-57z" />
    <glyph glyph-name="bracketleft" unicode="[" horiz-adv-x="339" 
d="M314 -80l-245 -8v816l245 -8v-39l-180 7v-736l180 7v-39z" />
    <glyph glyph-name="backslash" unicode="\" horiz-adv-x="379" 
d="M391 -95h-67l-308 830h68z" />
    <glyph glyph-name="bracketright" unicode="]" horiz-adv-x="339" 
d="M270 -88l-245 8v39l181 -7v736l-181 -7v39l245 8v-816z" />
    <glyph glyph-name="asciicircum" unicode="^" horiz-adv-x="550" 
d="M499 407h-47l-177 254l-177 -254h-47l190 318h68z" />
    <glyph glyph-name="underscore" unicode="_" 
d="M503 -86h-506v41h506v-41z" />
    <glyph glyph-name="grave" unicode="`" 
d="M330 592h-45l-137 151h91z" />
    <glyph glyph-name="a" unicode="a" horiz-adv-x="487" 
d="M465 -4q-51 0 -82.5 24.5t-36.5 65.5h-6q-75 -94 -167 -94q-60 0 -100.5 36.5t-40.5 100.5q0 81 80.5 128.5t232.5 47.5v60q0 108 -92 108q-68 0 -158 -51l-21 45q101 55 190 55q75 0 109.5 -37t34.5 -117v-265q0 -67 57 -73v-34zM345 128v142q-126 1 -188 -37t-62 -98
q0 -45 27.5 -71t70.5 -26q89 0 152 90z" />
    <glyph glyph-name="b" unicode="b" horiz-adv-x="513" 
d="M470 256q0 -124 -50.5 -195t-123.5 -71q-93 0 -154 121h-6v-120l-66 22v725l66 23v-357h6q33 61 68.5 91.5t87.5 30.5q76 0 124 -68.5t48 -194.5v-7zM405 257q0 112 -36.5 167t-92.5 55q-59 0 -100.5 -65.5t-41.5 -155.5q0 -89 41.5 -154.5t101.5 -65.5q55 0 91.5 56
t36.5 163z" />
    <glyph glyph-name="c" unicode="c" horiz-adv-x="444" 
d="M414 122q-49 -132 -174 -132q-90 0 -144 72.5t-54 191.5v7q0 118 55.5 192t146.5 74q119 0 167 -127l-55 -17q-19 49 -45.5 72.5t-68.5 23.5q-62 0 -98 -59t-36 -159v-4q0 -100 36 -159.5t99 -59.5q41 0 68 24.5t49 76.5z" />
    <glyph glyph-name="d" unicode="d" horiz-adv-x="513" 
d="M443 13l-66 -22v122h-6q-33 -62 -68.5 -92.5t-87.5 -30.5q-76 0 -124 69t-48 195v7q0 124 50.5 194.5t123.5 70.5q93 0 154 -121h6v333l66 23v-748zM379 259q0 89 -41.5 154.5t-101.5 65.5q-55 0 -91.5 -56t-36.5 -164q0 -111 36.5 -166t92.5 -55q59 0 100.5 65.5
t41.5 155.5z" />
    <glyph glyph-name="e" unicode="e" horiz-adv-x="459" 
d="M419 246h-313q1 -100 40.5 -153.5t107.5 -53.5q70 0 134 61l27 -39q-76 -71 -168 -71q-93 0 -149 70t-56 195v6q0 117 54 191.5t139 74.5q86 0 135 -73t49 -196v-12zM355 285q-11 197 -120 197q-57 0 -90.5 -53t-37.5 -144h248z" />
    <glyph glyph-name="f" unicode="f" horiz-adv-x="325" 
d="M342 691q-37 20 -85 20q-70 0 -70 -86v-113h129v-48h-129v-464h-66v464h-104v48h104v110q0 67 34.5 102t95.5 35q52 0 91 -13v-55z" />
    <glyph glyph-name="g" unicode="g" horiz-adv-x="513" 
d="M443 20q0 -210 -201 -210q-86 0 -147 25v57h22q39 -41 126 -41q134 0 134 157v105h-6q-33 -62 -68.5 -92.5t-87.5 -30.5q-76 0 -124 69t-48 195v7q0 124 50.5 194.5t123.5 70.5q93 0 154 -121h6v121l66 -23v-483zM379 259q0 89 -41.5 154.5t-101.5 65.5q-55 0 -91.5 -56
t-36.5 -164q0 -111 36.5 -166t92.5 -55q59 0 100.5 65.5t41.5 155.5z" />
    <glyph glyph-name="h" unicode="h" horiz-adv-x="493" 
d="M427 0h-66v391q0 82 -69 82q-77 0 -156 -127v-346h-66v738l66 23v-368h6q89 129 180 129q52 0 78.5 -31.5t26.5 -85.5v-405z" />
    <glyph glyph-name="i" unicode="i" horiz-adv-x="224" 
d="M153 637h-82v85h82v-85zM145 0h-66v517h66v-517z" />
    <glyph glyph-name="j" unicode="j" horiz-adv-x="224" 
d="M153 637h-82v85h82v-85zM145 -60q0 -130 -120 -130q-33 0 -60 9v49q26 -10 53 -10q61 0 61 77v582h66v-577z" />
    <glyph glyph-name="k" unicode="k" horiz-adv-x="459" 
d="M452 0h-77l-219 259v3l214 255h74l-217 -254zM136 0h-66v738l66 23v-761z" />
    <glyph glyph-name="l" unicode="l" horiz-adv-x="224" 
d="M145 0h-66v738l66 23v-761z" />
    <glyph glyph-name="m" unicode="m" horiz-adv-x="776" 
d="M711 0h-67v391q0 82 -67 82q-75 0 -154 -127v-346h-66v391q0 82 -67 82q-75 0 -154 -127v-346h-66v503l66 23v-133h6q44 64 86 96.5t92 32.5t75.5 -30t27.5 -80v-19h6q44 64 86 96.5t92 32.5q52 0 78 -31.5t26 -85.5v-405z" />
    <glyph glyph-name="n" unicode="n" horiz-adv-x="493" 
d="M427 0h-66v391q0 82 -69 82q-77 0 -156 -127v-346h-66v503l66 23v-133h6q89 129 180 129q52 0 78.5 -31.5t26.5 -85.5v-405z" />
    <glyph glyph-name="o" unicode="o" horiz-adv-x="492" 
d="M449 256q0 -118 -55 -192t-148 -74t-148.5 73t-55.5 191v7q0 118 55.5 192t148.5 74t148 -73t55 -191v-7zM383 254v7q0 101 -36 160.5t-101 59.5t-101.5 -59t-36.5 -159v-7q0 -101 36.5 -160.5t101.5 -59.5t101 59t36 159z" />
    <glyph glyph-name="p" unicode="p" horiz-adv-x="513" 
d="M470 256q0 -124 -50.5 -195t-123.5 -71q-93 0 -154 121h-6v-299h-66v691l66 23v-122h6q33 61 68.5 91.5t87.5 30.5q76 0 124 -68.5t48 -194.5v-7zM405 257q0 112 -36.5 167t-92.5 55q-59 0 -100.5 -65.5t-41.5 -155.5q0 -89 41.5 -154.5t101.5 -65.5q55 0 91.5 56
t36.5 163z" />
    <glyph glyph-name="q" unicode="q" horiz-adv-x="513" 
d="M443 -188h-66v301h-6q-33 -62 -68.5 -92.5t-87.5 -30.5q-76 0 -124 69t-48 195v7q0 124 50.5 194.5t123.5 70.5q93 0 154 -121h6v121l66 -23v-691zM379 259q0 89 -41.5 154.5t-101.5 65.5q-55 0 -91.5 -56t-36.5 -164q0 -111 36.5 -166t92.5 -55q59 0 100.5 65.5
t41.5 155.5z" />
    <glyph glyph-name="r" unicode="r" horiz-adv-x="370" 
d="M353 452q-63 -14 -119 -61.5t-98 -116.5v-274h-66v503l66 23v-203h6q105 181 211 203v-74z" />
    <glyph glyph-name="s" unicode="s" horiz-adv-x="407" 
d="M374 134q0 -68 -48 -105t-120 -37q-102 0 -176 62l30 42q68 -58 147 -58q47 0 77 23.5t30 65.5q0 40 -25.5 64t-95.5 49q-79 28 -113.5 63.5t-34.5 88.5q0 57 42.5 95t109.5 38q48 0 83.5 -12.5t76.5 -40.5l-31 -44q-64 51 -129 51q-44 0 -68 -23t-24 -58t26 -58t88 -45
q86 -30 120.5 -66.5t34.5 -94.5z" />
    <glyph glyph-name="t" unicode="t" horiz-adv-x="355" 
d="M334 24q-59 -34 -116 -34q-106 0 -106 105v369h-95v48h95v170l66 49v-219h131v-48h-131v-357q0 -32 15.5 -48.5t41.5 -16.5q42 0 99 36v-54z" />
    <glyph glyph-name="u" unicode="u" horiz-adv-x="493" 
d="M423 13l-66 -22v133h-6q-89 -129 -180 -129q-52 0 -78.5 31.5t-26.5 85.5v405h66v-391q0 -82 69 -82q78 0 156 127v346h66v-504z" />
    <glyph glyph-name="v" unicode="v" horiz-adv-x="462" 
d="M436 517l-170 -523h-70l-170 523h69l138 -453l138 453h65z" />
    <glyph glyph-name="w" unicode="w" horiz-adv-x="753" 
d="M725 517l-160 -521h-67l-121 438l-121 -438h-68l-160 521h69l127 -449l122 449h65l121 -449l128 449h65z" />
    <glyph glyph-name="x" unicode="x" horiz-adv-x="473" 
d="M444 0h-73l-137 218l-137 -218h-67l173 261l-168 256h73l131 -210l131 210h68l-168 -252z" />
    <glyph glyph-name="y" unicode="y" horiz-adv-x="462" 
d="M436 517l-189 -581q-23 -70 -57.5 -99.5t-89.5 -29.5q-40 0 -77 17v54h21q19 -30 57 -30q53 0 82 80l19 54l-176 535h69l138 -455l138 455h65z" />
    <glyph glyph-name="z" unicode="z" horiz-adv-x="418" 
d="M386 0h-355v42l280 423h-265v48h340v-42l-280 -423h280v-48z" />
    <glyph glyph-name="braceleft" unicode="{" horiz-adv-x="383" 
d="M349 -80h-81q-66 0 -100 32t-34 92q0 24 10 80t10 77q0 51 -35.5 75t-95.5 24v40q60 0 95.5 24t35.5 75q0 21 -10 77t-10 80q0 60 34 92t100 32h81v-39h-66q-42 0 -63 -22.5t-21 -58.5q0 -19 10 -73t10 -80q0 -53 -27.5 -79.5t-77.5 -43.5v-8q50 -17 77.5 -43.5
t27.5 -79.5q0 -26 -10 -80t-10 -73q0 -36 21 -58.5t63 -22.5h66v-39z" />
    <glyph glyph-name="bar" unicode="|" horiz-adv-x="236" 
d="M149 -188h-62v950h62v-950z" />
    <glyph glyph-name="braceright" unicode="}" horiz-adv-x="383" 
d="M359 300q-60 0 -95.5 -24t-35.5 -75q0 -21 10 -77t10 -80q0 -60 -34 -92t-100 -32h-81v39h67q41 0 62.5 22.5t21.5 58.5q0 19 -10 73t-10 80q0 53 27.5 79.5t77.5 43.5v8q-50 17 -77.5 43.5t-27.5 79.5q0 26 10 80t10 73q0 36 -21.5 58.5t-62.5 22.5h-67v39h81
q66 0 100 -32t34 -92q0 -24 -10 -80t-10 -77q0 -51 35.5 -75t95.5 -24v-40z" />
    <glyph glyph-name="asciitilde" unicode="~" horiz-adv-x="387" 
d="M347 334q1 -108 -79 -108q-29 0 -79.5 28.5t-67.5 28.5q-41 0 -41 -55h-40q0 108 79 108q29 0 80 -28.5t68 -28.5q41 0 41 55h39z" />
    <glyph glyph-name="exclamdown" unicode="&#xa1;" horiz-adv-x="242" 
d="M169 679q0 -20 -14 -34t-34 -14t-34 14t-14 34t14 34t34 14t34 -14t14 -34zM163 0h-84l25 513h34z" />
    <glyph glyph-name="cent" unicode="&#xa2;" horiz-adv-x="459" 
d="M414 122q-49 -132 -174 -132q-38 0 -71 15l-39 -100h-44l48 119q-44 32 -68 92t-24 138v7q0 118 55.5 192t146.5 74q48 0 80 -19l40 104h45l-220 -562q25 -14 54 -14q78 0 120 103zM306 463q-28 18 -63 18q-63 0 -100.5 -60t-37.5 -160v-4q0 -118 56 -179z" />
    <glyph glyph-name="sterling" unicode="&#xa3;" horiz-adv-x="571" 
d="M544 168q-17 -92 -55 -133t-113 -41q-85 0 -183 71q-46 -48 -133 -71v56q120 35 120 160q0 56 -20 125h-121v45h107q-33 101 -33 157q0 85 52 140t148 55q134 0 200 -103l-54 -35q-58 84 -148 84q-65 0 -98.5 -38.5t-33.5 -101.5q0 -45 35 -158h191v-45h-177
q17 -70 17 -123q0 -56 -20 -99q78 -63 149 -63q50 0 78 30t41 105z" />
    <glyph glyph-name="currency" unicode="&#xa4;" horiz-adv-x="579" 
d="M540 191q-32 -97 -87 -150t-146 -53q-118 0 -186 98t-68 267v13q0 169 68 267.5t188 98.5q166 0 226 -187l-56 -25q-26 79 -66 118t-103 39q-76 0 -122.5 -59.5t-59.5 -162.5h228v-45h-232q-2 -28 -2 -44v-11q0 -29 3 -55h231v-45h-227q15 -98 61.5 -155t121.5 -57
q125 0 174 169z" />
    <glyph glyph-name="yen" unicode="&#xa5;" horiz-adv-x="610" 
d="M587 720l-190 -338h141v-44h-166l-33 -60v-79h199v-45h-199v-154h-68v154h-200v45h200v78l-34 61h-166v44h142l-191 338h77l208 -388l208 388h72z" />
    <glyph glyph-name="brokenbar" unicode="&#xa6;" 
d="M462 173l-23 -64l-175 79l21 -188h-70l21 188l-175 -79l-23 64l186 41l-132 144v4l132 144l-186 41l23 64l175 -79l-21 188h70l-21 -188l175 79l23 -64l-186 -41l132 -144v-4l-132 -144zM339 360l-89 135l-89 -135l89 -135z" />
    <glyph glyph-name="section" unicode="&#xa7;" horiz-adv-x="576" 
d="M537 349q0 -49 -45.5 -84t-124.5 -40v-6q106 -32 106 -114q0 -53 -48.5 -85t-126.5 -32q-104 0 -198 50l28 47q85 -49 173 -49q50 0 81 18.5t31 47.5q0 37 -32.5 61.5t-141.5 54.5q-105 28 -152.5 65t-47.5 88q0 49 45.5 84t124.5 40v6q-106 32 -106 114q0 53 48.5 85
t126.5 32q104 0 198 -50l-28 -47q-85 49 -173 49q-50 0 -81 -18.5t-31 -47.5q0 -37 32.5 -61.5t141.5 -54.5q105 -28 152.5 -65t47.5 -88zM480 340q0 35 -32 62t-106 50q-55 16 -114 16q-58 0 -95 -24t-37 -64q0 -35 32 -62t106 -50q55 -16 114 -16q58 0 95 24t37 64z" />
    <glyph glyph-name="dieresis" unicode="&#xa8;" 
d="M376 592h-74v87h74v-87zM198 592h-74v87h74v-87z" />
    <glyph glyph-name="copyright" unicode="&#xa9;" horiz-adv-x="835" 
d="M790 360q0 -158 -107.5 -265t-265.5 -107t-264.5 107t-106.5 265t107 265t265 107t265 -107t107 -265zM753 360q0 145 -96 242.5t-240 97.5t-239.5 -97.5t-95.5 -242.5t96 -242.5t240 -97.5t239.5 97.5t95.5 242.5zM553 287q-29 -130 -138 -130q-68 0 -108.5 55
t-40.5 149v7q0 95 40 149.5t110 54.5q107 0 135 -121l-50 -14q-13 47 -32.5 69t-52.5 22q-47 0 -70.5 -42.5t-23.5 -113.5v-13q0 -71 23.5 -114t70.5 -43q65 0 88 99z" />
    <glyph glyph-name="ordfeminine" unicode="&#xaa;" horiz-adv-x="378" 
d="M338 373q-75 -3 -84 59q-48 -61 -110 -61q-41 0 -68.5 24t-27.5 69q0 53 53 85.5t151 32.5v37q0 67 -55 67q-50 0 -106 -34l-16 36q70 37 129 37q51 0 74.5 -25t23.5 -79v-175q0 -41 36 -44v-29zM326 257h-275v37h275v-37zM252 464v91q-78 0 -116.5 -25t-38.5 -63
q0 -28 16.5 -44t43.5 -16q55 0 95 57z" />
    <glyph glyph-name="guillemotleft" unicode="&#xab;" horiz-adv-x="456" 
d="M422 78h-45l-157 180l157 181h45l-126 -181zM230 78h-45l-157 180l157 181h45l-126 -181z" />
    <glyph glyph-name="logicalnot" unicode="&#xac;" horiz-adv-x="257" 
d="M164 0h-71v720h71v-720z" />
    <glyph glyph-name="registered" unicode="&#xae;" horiz-adv-x="527" 
d="M487 504q0 -95 -64.5 -159t-159.5 -64t-158.5 64t-63.5 159t64 159t159 64q94 0 158.5 -64.5t64.5 -158.5zM461 504q0 85 -56.5 142.5t-141.5 57.5q-84 0 -140.5 -57.5t-56.5 -142.5t56.5 -142.5t141.5 -57.5q84 0 140.5 57.5t56.5 142.5zM368 382h-45l-69 105h-28v-105
h-40v250h83q40 0 63 -18.5t23 -53.5q0 -28 -15.5 -46t-43.5 -23zM316 560q0 40 -49 40h-42v-81h42q49 0 49 41z" />
    <glyph glyph-name="macron" unicode="&#xaf;" 
d="M389 631h-278v53h278v-53z" />
    <glyph glyph-name="macron" unicode="&#x2c9;" 
d="M389 631h-278v53h278v-53z" />
    <glyph glyph-name="degree" unicode="&#xb0;" horiz-adv-x="400" 
d="M348 578q0 -64 -42 -105t-106 -41t-106 41t-42 105t42 105t106 41t106 -41t42 -105zM301 578q0 46 -28.5 75.5t-72.5 29.5t-72.5 -29.5t-28.5 -75.5t28.5 -75.5t72.5 -29.5t72.5 29.5t28.5 75.5z" />
    <glyph glyph-name="plusminus" unicode="&#xb1;" horiz-adv-x="831" 
d="M752 0h-67v738l67 23v-761zM621 692q-36 19 -82 19q-70 0 -70 -86v-113h129v-48h-129v-464h-66v464h-216v-464h-66v464h-104v48h104v110q0 67 34.5 102t95.5 35q51 0 88 -13v-54q-36 19 -82 19q-70 0 -70 -86v-113h216v110q0 67 34.5 102t95.5 35q51 0 88 -13v-54z" />
    <glyph glyph-name="twosuperior" unicode="&#xb2;" 
d="M462 173l-23 -64l-175 79l21 -188h-70l21 188l-175 -79l-23 64l186 41l-132 144v4l132 144l-186 41l23 64l175 -79l-21 188h70l-21 -188l175 79l23 -64l-186 -41l132 -144v-4l-132 -144zM339 360l-89 135l-89 -135l89 -135z" />
    <glyph glyph-name="threesuperior" unicode="&#xb3;" 
d="M462 173l-23 -64l-175 79l21 -188h-70l21 188l-175 -79l-23 64l186 41l-132 144v4l132 144l-186 41l23 64l175 -79l-21 188h70l-21 -188l175 79l23 -64l-186 -41l132 -144v-4l-132 -144zM339 360l-89 135l-89 -135l89 -135z" />
    <glyph glyph-name="acute" unicode="&#xb4;" 
d="M352 743l-137 -151h-45l91 151h91z" />
    <glyph glyph-name="mu" unicode="&#xb5;" 
d="M462 173l-23 -64l-175 79l21 -188h-70l21 188l-175 -79l-23 64l186 41l-132 144v4l132 144l-186 41l23 64l175 -79l-21 188h70l-21 -188l175 79l23 -64l-186 -41l132 -144v-4l-132 -144zM339 360l-89 135l-89 -135l89 -135z" />
    <glyph glyph-name="mu" unicode="&#x3bc;" 
d="M462 173l-23 -64l-175 79l21 -188h-70l21 188l-175 -79l-23 64l186 41l-132 144v4l132 144l-186 41l23 64l175 -79l-21 188h70l-21 -188l175 79l23 -64l-186 -41l132 -144v-4l-132 -144zM339 360l-89 135l-89 -135l89 -135z" />
    <glyph glyph-name="paragraph" unicode="&#xb6;" horiz-adv-x="528" 
d="M444 0h-47v678h-100v-678h-46v363q-104 1 -160 48t-56 129q0 86 58.5 133t160.5 47h190v-720z" />
    <glyph glyph-name="periodcentered" unicode="&#xb7;" horiz-adv-x="186" 
d="M142 278q0 -22 -14 -36t-35 -14q-22 0 -36 14t-14 36t14 36t36 14q21 0 35 -14t14 -36z" />
    <glyph glyph-name="periodcentered" unicode="&#x2219;" horiz-adv-x="186" 
d="M142 278q0 -22 -14 -36t-35 -14q-22 0 -36 14t-14 36t14 36t36 14q21 0 35 -14t14 -36z" />
    <glyph glyph-name="cedilla" unicode="&#xb8;" 
d="M371 -103q0 -91 -210 -88v24q155 3 155 56q0 29 -38 29q-30 0 -55 -12l-22 14l48 80h37l-32 -54q21 9 46 9q71 0 71 -58z" />
    <glyph glyph-name="onesuperior" unicode="&#xb9;" 
d="M462 173l-23 -64l-175 79l21 -188h-70l21 188l-175 -79l-23 64l186 41l-132 144v4l132 144l-186 41l23 64l175 -79l-21 188h70l-21 -188l175 79l23 -64l-186 -41l132 -144v-4l-132 -144zM339 360l-89 135l-89 -135l89 -135z" />
    <glyph glyph-name="ordmasculine" unicode="&#xba;" horiz-adv-x="378" 
d="M328 547q0 -80 -38 -129.5t-101 -49.5t-101 49.5t-38 130.5q0 80 38 129.5t101 49.5t101 -49.5t38 -130.5zM321 257h-264v37h264v-37zM277 546q0 66 -23.5 105t-64.5 39t-64.5 -38t-23.5 -103t23.5 -104t64.5 -39t64.5 38t23.5 102z" />
    <glyph glyph-name="guillemotright" unicode="&#xbb;" horiz-adv-x="456" 
d="M428 258l-157 -180h-45l126 180l-126 181h45zM236 258l-157 -180h-45l126 180l-126 181h45z" />
    <glyph glyph-name="onequarter" unicode="&#xbc;" 
d="M462 173l-23 -64l-175 79l21 -188h-70l21 188l-175 -79l-23 64l186 41l-132 144v4l132 144l-186 41l23 64l175 -79l-21 188h70l-21 -188l175 79l23 -64l-186 -41l132 -144v-4l-132 -144zM339 360l-89 135l-89 -135l89 -135z" />
    <glyph glyph-name="onehalf" unicode="&#xbd;" 
d="M462 173l-23 -64l-175 79l21 -188h-70l21 188l-175 -79l-23 64l186 41l-132 144v4l132 144l-186 41l23 64l175 -79l-21 188h70l-21 -188l175 79l23 -64l-186 -41l132 -144v-4l-132 -144zM339 360l-89 135l-89 -135l89 -135z" />
    <glyph glyph-name="threequarters" unicode="&#xbe;" 
d="M462 173l-23 -64l-175 79l21 -188h-70l21 188l-175 -79l-23 64l186 41l-132 144v4l132 144l-186 41l23 64l175 -79l-21 188h70l-21 -188l175 79l23 -64l-186 -41l132 -144v-4l-132 -144zM339 360l-89 135l-89 -135l89 -135z" />
    <glyph glyph-name="questiondown" unicode="&#xbf;" horiz-adv-x="442" 
d="M289 679q0 -20 -13.5 -34t-34.5 -14q-20 0 -33.5 14t-13.5 34t13.5 34t33.5 14q21 0 34.5 -14t13.5 -34zM421 129q-59 -141 -201 -141q-79 0 -127 45.5t-48 114.5q0 54 21.5 90t80.5 92q42 41 56.5 76t15.5 107h44q3 -89 -11 -131.5t-63 -88.5q-40 -39 -57 -71.5
t-17 -70.5q0 -48 29 -78t79 -30q53 0 86.5 26t58.5 84z" />
    <glyph glyph-name="Agrave" unicode="&#xc0;" horiz-adv-x="666" 
d="M638 0h-73l-66 192h-335l-66 -192h-70l256 724h98zM483 244l-147 423h-9l-147 -423h303zM358 774h-45l-137 151h91z" />
    <glyph glyph-name="Aacute" unicode="&#xc1;" horiz-adv-x="666" 
d="M638 0h-73l-66 192h-335l-66 -192h-70l256 724h98zM483 244l-147 423h-9l-147 -423h303zM490 925l-137 -151h-45l91 151h91z" />
    <glyph glyph-name="Acircumflex" unicode="&#xc2;" horiz-adv-x="666" 
d="M638 0h-73l-66 192h-335l-66 -192h-70l256 724h98zM483 244l-147 423h-9l-147 -423h303zM487 753h-39l-116 107l-116 -107h-37l124 158h60z" />
    <glyph glyph-name="Atilde" unicode="&#xc3;" horiz-adv-x="666" 
d="M638 0h-73l-66 192h-335l-66 -192h-70l256 724h98zM483 244l-147 423h-9l-147 -423h303zM487 882q0 -107 -80 -107q-29 0 -79 28t-68 28q-41 0 -41 -54h-40q0 107 80 107q29 0 79 -28t68 -28q41 0 41 54h40z" />
    <glyph glyph-name="Adieresis" unicode="&#xc4;" horiz-adv-x="666" 
d="M638 0h-73l-66 192h-335l-66 -192h-70l256 724h98zM483 244l-147 423h-9l-147 -423h303zM459 774h-74v87h74v-87zM281 774h-74v87h74v-87z" />
    <glyph glyph-name="Aring" unicode="&#xc5;" horiz-adv-x="666" 
d="M638 0h-73l-66 192h-335l-66 -192h-70l256 724h98zM483 244l-147 423h-9l-147 -423h303zM429 858q0 -39 -27 -64.5t-69 -25.5t-69 25.5t-27 64.5t27 64.5t69 25.5t69 -25.5t27 -64.5zM389 858q0 25 -16 41.5t-40 16.5t-40 -16.5t-16 -41.5t16 -41.5t40 -16.5t40 16.5
t16 41.5z" />
    <glyph glyph-name="AE" unicode="&#xc6;" horiz-adv-x="916" 
d="M877 0h-415v192h-275l-101 -192h-73l381 720h471v-57h-333v-259h275v-55h-275v-292h345v-57zM462 244v419h-29l-221 -419h250z" />
    <glyph glyph-name="Ccedilla" unicode="&#xc7;" horiz-adv-x="579" 
d="M540 206q-47 -207 -216 -217l-25 -43q23 9 47 9q71 0 71 -58q0 -91 -211 -88v24q156 3 156 56q0 29 -38 29q-30 0 -55 -12l-23 14l43 69q-111 8 -173.5 105.5t-62.5 258.5v13q0 169 68 267.5t188 98.5q180 0 226 -204l-65 -19q-40 167 -161 167q-90 0 -137 -83.5
t-47 -220.5v-22q0 -138 47 -222t138 -84q126 0 165 179z" />
    <glyph glyph-name="Egrave" unicode="&#xc8;" horiz-adv-x="556" 
d="M517 0h-433v720h421v-57h-350v-259h292v-55h-292v-292h362v-57zM337 774h-45l-137 151h91z" />
    <glyph glyph-name="Eacute" unicode="&#xc9;" horiz-adv-x="556" 
d="M517 0h-433v720h421v-57h-350v-259h292v-55h-292v-292h362v-57zM419 925l-137 -151h-45l91 151h91z" />
    <glyph glyph-name="Ecircumflex" unicode="&#xca;" horiz-adv-x="556" 
d="M517 0h-433v720h421v-57h-350v-259h292v-55h-292v-292h362v-57zM443 770h-39l-116 107l-116 -107h-37l124 158h60z" />
    <glyph glyph-name="Edieresis" unicode="&#xcb;" horiz-adv-x="556" 
d="M517 0h-433v720h421v-57h-350v-259h292v-55h-292v-292h362v-57zM415 774h-74v87h74v-87zM237 774h-74v87h74v-87z" />
    <glyph glyph-name="Igrave" unicode="&#xcc;" horiz-adv-x="387" 
d="M332 0h-277v38h103v644h-103v38h277v-38h-103v-644h103v-38zM232 774h-45l-137 151h91z" />
    <glyph glyph-name="Iacute" unicode="&#xcd;" horiz-adv-x="387" 
d="M332 0h-277v38h103v644h-103v38h277v-38h-103v-644h103v-38zM337 925l-137 -151h-45l91 151h91z" />
    <glyph glyph-name="Icircumflex" unicode="&#xce;" horiz-adv-x="387" 
d="M332 0h-277v38h103v644h-103v38h277v-38h-103v-644h103v-38zM348 770h-39l-116 107l-116 -107h-37l124 158h60z" />
    <glyph glyph-name="Idieresis" unicode="&#xcf;" horiz-adv-x="387" 
d="M332 0h-277v38h103v644h-103v38h277v-38h-103v-644h103v-38zM320 774h-74v87h74v-87zM142 774h-74v87h74v-87z" />
    <glyph glyph-name="Eth" unicode="&#xd0;" horiz-adv-x="657" 
d="M605 356q0 -169 -82 -262.5t-231 -93.5h-172v348h-92v57h92v315h176q149 0 229 -93t80 -261v-10zM532 351v17q0 145 -61.5 220.5t-179.5 75.5h-102v-259h141v-57h-141v-292h106q113 0 175 76t62 219z" />
    <glyph glyph-name="Ntilde" unicode="&#xd1;" horiz-adv-x="644" 
d="M560 0h-89l-313 628h-7v-628h-67v720h95l306 -615h8v615h67v-720zM473 882q0 -107 -80 -107q-29 0 -79 28t-68 28q-41 0 -41 -54h-40q0 107 80 107q29 0 79 -28t68 -28q41 0 41 54h40z" />
    <glyph glyph-name="Ograve" unicode="&#xd2;" horiz-adv-x="617" 
d="M564 354q0 -169 -68 -267.5t-188 -98.5q-119 0 -187 98t-68 267v13q0 168 68 267t187 99q120 0 188 -98t68 -267v-13zM491 348v22q0 139 -46.5 222.5t-136.5 83.5q-89 0 -136 -83t-47 -221v-22q0 -139 47 -222.5t136 -83.5q90 0 136.5 82.5t46.5 221.5zM350 784h-45
l-137 151h91z" />
    <glyph glyph-name="Oacute" unicode="&#xd3;" horiz-adv-x="617" 
d="M564 354q0 -169 -68 -267.5t-188 -98.5q-119 0 -187 98t-68 267v13q0 168 68 267t187 99q120 0 188 -98t68 -267v-13zM491 348v22q0 139 -46.5 222.5t-136.5 83.5q-89 0 -136 -83t-47 -221v-22q0 -139 47 -222.5t136 -83.5q90 0 136.5 82.5t46.5 221.5zM449 935
l-137 -151h-45l91 151h91z" />
    <glyph glyph-name="Ocircumflex" unicode="&#xd4;" horiz-adv-x="617" 
d="M564 354q0 -169 -68 -267.5t-188 -98.5q-119 0 -187 98t-68 267v13q0 168 68 267t187 99q120 0 188 -98t68 -267v-13zM491 348v22q0 139 -46.5 222.5t-136.5 83.5q-89 0 -136 -83t-47 -221v-22q0 -139 47 -222.5t136 -83.5q90 0 136.5 82.5t46.5 221.5zM462 770h-39
l-116 107l-116 -107h-37l124 158h60z" />
    <glyph glyph-name="Otilde" unicode="&#xd5;" horiz-adv-x="617" 
d="M564 354q0 -169 -68 -267.5t-188 -98.5q-119 0 -187 98t-68 267v13q0 168 68 267t187 99q120 0 188 -98t68 -267v-13zM491 348v22q0 139 -46.5 222.5t-136.5 83.5q-89 0 -136 -83t-47 -221v-22q0 -139 47 -222.5t136 -83.5q90 0 136.5 82.5t46.5 221.5zM460 892
q0 -107 -80 -107q-30 0 -80 28t-67 28q-41 0 -41 -54h-40q0 107 80 107q30 0 80 -28t67 -28q41 0 41 54h40z" />
    <glyph glyph-name="Odieresis" unicode="&#xd6;" horiz-adv-x="617" 
d="M564 354q0 -169 -68 -267.5t-188 -98.5q-119 0 -187 98t-68 267v13q0 168 68 267t187 99q120 0 188 -98t68 -267v-13zM491 348v22q0 139 -46.5 222.5t-136.5 83.5q-89 0 -136 -83t-47 -221v-22q0 -139 47 -222.5t136 -83.5q90 0 136.5 82.5t46.5 221.5zM434 779h-74v87
h74v-87zM256 779h-74v87h74v-87z" />
    <glyph glyph-name="multiply" unicode="&#xd7;" 
d="M462 173l-23 -64l-175 79l21 -188h-70l21 188l-175 -79l-23 64l186 41l-132 144v4l132 144l-186 41l23 64l175 -79l-21 188h70l-21 -188l175 79l23 -64l-186 -41l132 -144v-4l-132 -144zM339 360l-89 135l-89 -135l89 -135z" />
    <glyph glyph-name="Oslash" unicode="&#xd8;" horiz-adv-x="617" 
d="M564 354q0 -169 -68 -267.5t-188 -98.5q-80 0 -139 48l-66 -131h-50l82 162q-82 94 -82 286v13q0 168 68 267t187 99q84 0 139 -48l66 133h51l-83 -163q83 -99 83 -287v-13zM420 629q-44 49 -112 49q-90 0 -137.5 -83.5t-47.5 -222.5v-22q0 -147 47 -221zM494 348v22
q0 146 -47 222l-251 -501q44 -49 112 -49q90 0 138 83t48 223z" />
    <glyph glyph-name="Ugrave" unicode="&#xd9;" horiz-adv-x="625" 
d="M546 247q0 -131 -63.5 -195t-170.5 -64q-106 0 -169.5 64t-63.5 195v473h71v-472q0 -104 44 -153.5t121 -49.5q164 0 164 199v476h67v-473zM350 765h-45l-137 151h91z" />
    <glyph glyph-name="Uacute" unicode="&#xda;" horiz-adv-x="625" 
d="M546 247q0 -131 -63.5 -195t-170.5 -64q-106 0 -169.5 64t-63.5 195v473h71v-472q0 -104 44 -153.5t121 -49.5q164 0 164 199v476h67v-473zM458 916l-137 -151h-45l91 151h91z" />
    <glyph glyph-name="Ucircumflex" unicode="&#xdb;" horiz-adv-x="625" 
d="M546 247q0 -131 -63.5 -195t-170.5 -64q-106 0 -169.5 64t-63.5 195v473h71v-472q0 -104 44 -153.5t121 -49.5q164 0 164 199v476h67v-473zM469 770h-39l-116 107l-116 -107h-37l124 158h60z" />
    <glyph glyph-name="Udieresis" unicode="&#xdc;" horiz-adv-x="625" 
d="M546 247q0 -131 -63.5 -195t-170.5 -64q-106 0 -169.5 64t-63.5 195v473h71v-472q0 -104 44 -153.5t121 -49.5q164 0 164 199v476h67v-473zM441 774h-74v87h74v-87zM263 774h-74v87h74v-87z" />
    <glyph glyph-name="Yacute" unicode="&#xdd;" horiz-adv-x="616" 
d="M599 720l-255 -442v-278h-72v277l-255 443h78l216 -383l215 383h73zM448 916l-137 -151h-45l91 151h91z" />
    <glyph glyph-name="Thorn" unicode="&#xde;" horiz-adv-x="571" 
d="M531 372q0 -101 -62.5 -155t-177.5 -54h-135v-163h-72v720h72v-143h140q112 0 173.5 -53t61.5 -152zM460 370q0 74 -43.5 113.5t-127.5 39.5h-135v-305h139q81 0 124 38.5t43 113.5z" />
    <glyph glyph-name="germandbls" unicode="&#xdf;" horiz-adv-x="577" 
d="M535 183q0 -87 -51.5 -139.5t-132.5 -52.5t-135 47l23 42q46 -41 107 -41q54 0 88.5 38t34.5 104q0 91 -60.5 145.5t-168.5 63.5v45q79 3 121.5 45t42.5 104q0 56 -35.5 91.5t-96.5 35.5q-65 0 -100.5 -43t-35.5 -121v-547h-66v540q0 102 54.5 160.5t149.5 58.5
q90 0 142.5 -47.5t52.5 -122.5q0 -63 -35 -106.5t-91 -62.5v-7q82 -21 137 -79.5t55 -150.5z" />
    <glyph glyph-name="agrave" unicode="&#xe0;" horiz-adv-x="487" 
d="M465 -4q-51 0 -82.5 24.5t-36.5 65.5h-6q-75 -94 -167 -94q-60 0 -100.5 36.5t-40.5 100.5q0 81 80.5 128.5t232.5 47.5v60q0 108 -92 108q-68 0 -158 -51l-21 45q101 55 190 55q75 0 109.5 -37t34.5 -117v-265q0 -67 57 -73v-34zM345 128v142q-126 1 -188 -37t-62 -98
q0 -45 27.5 -71t70.5 -26q89 0 152 90zM286 592h-45l-137 151h91z" />
    <glyph glyph-name="aacute" unicode="&#xe1;" horiz-adv-x="487" 
d="M465 -4q-51 0 -82.5 24.5t-36.5 65.5h-6q-75 -94 -167 -94q-60 0 -100.5 36.5t-40.5 100.5q0 81 80.5 128.5t232.5 47.5v60q0 108 -92 108q-68 0 -158 -51l-21 45q101 55 190 55q75 0 109.5 -37t34.5 -117v-265q0 -67 57 -73v-34zM345 128v142q-126 1 -188 -37t-62 -98
q0 -45 27.5 -71t70.5 -26q89 0 152 90zM379 743l-137 -151h-45l91 151h91z" />
    <glyph glyph-name="acircumflex" unicode="&#xe2;" horiz-adv-x="487" 
d="M465 -4q-51 0 -82.5 24.5t-36.5 65.5h-6q-75 -94 -167 -94q-60 0 -100.5 36.5t-40.5 100.5q0 81 80.5 128.5t232.5 47.5v60q0 108 -92 108q-68 0 -158 -51l-21 45q101 55 190 55q75 0 109.5 -37t34.5 -117v-265q0 -67 57 -73v-34zM345 128v142q-126 1 -188 -37t-62 -98
q0 -45 27.5 -71t70.5 -26q89 0 152 90zM393 588h-39l-116 107l-116 -107h-37l124 158h60z" />
    <glyph glyph-name="atilde" unicode="&#xe3;" horiz-adv-x="487" 
d="M465 -4q-51 0 -82.5 24.5t-36.5 65.5h-6q-75 -94 -167 -94q-60 0 -100.5 36.5t-40.5 100.5q0 81 80.5 128.5t232.5 47.5v60q0 108 -92 108q-68 0 -158 -51l-21 45q101 55 190 55q75 0 109.5 -37t34.5 -117v-265q0 -67 57 -73v-34zM345 128v142q-126 1 -188 -37t-62 -98
q0 -45 27.5 -71t70.5 -26q89 0 152 90zM394 700q0 -107 -80 -107q-30 0 -79.5 28t-67.5 28q-41 0 -41 -54h-40q0 107 80 107q29 0 79.5 -28t67.5 -28q41 0 41 54h40z" />
    <glyph glyph-name="adieresis" unicode="&#xe4;" horiz-adv-x="487" 
d="M465 -4q-51 0 -82.5 24.5t-36.5 65.5h-6q-75 -94 -167 -94q-60 0 -100.5 36.5t-40.5 100.5q0 81 80.5 128.5t232.5 47.5v60q0 108 -92 108q-68 0 -158 -51l-21 45q101 55 190 55q75 0 109.5 -37t34.5 -117v-265q0 -67 57 -73v-34zM345 128v142q-126 1 -188 -37t-62 -98
q0 -45 27.5 -71t70.5 -26q89 0 152 90zM371 592h-74v87h74v-87zM193 592h-74v87h74v-87z" />
    <glyph glyph-name="aring" unicode="&#xe5;" horiz-adv-x="487" 
d="M465 -4q-51 0 -82.5 24.5t-36.5 65.5h-6q-75 -94 -167 -94q-60 0 -100.5 36.5t-40.5 100.5q0 81 80.5 128.5t232.5 47.5v60q0 108 -92 108q-68 0 -158 -51l-21 45q101 55 190 55q75 0 109.5 -37t34.5 -117v-265q0 -67 57 -73v-34zM345 128v142q-126 1 -188 -37t-62 -98
q0 -45 27.5 -71t70.5 -26q89 0 152 90zM337 675q0 -39 -27 -64.5t-69 -25.5t-69 25.5t-27 64.5t27 64.5t69 25.5t69 -25.5t27 -64.5zM297 675q0 25 -16 41.5t-40 16.5t-40 -16.5t-16 -41.5t16 -41.5t40 -16.5t40 16.5t16 41.5z" />
    <glyph glyph-name="ae" unicode="&#xe6;" horiz-adv-x="753" 
d="M713 246h-313q1 -100 40.5 -153.5t107.5 -53.5t134 61l27 -39q-76 -71 -169 -71q-116 0 -171 109q-88 -107 -194 -107q-63 0 -103 36t-40 101q0 81 78.5 128t225.5 48v69q0 99 -91 99q-61 0 -151 -51l-21 45q103 55 181 55q107 0 124 -108h7q47 113 145 113
q86 0 134.5 -73t48.5 -196v-12zM649 285q-11 197 -120 197q-57 0 -90.5 -53t-37.5 -144h248zM354 133q-18 53 -18 120v17q-121 1 -181.5 -37.5t-60.5 -97.5q0 -46 27.5 -71.5t71.5 -25.5q41 0 83.5 24.5t77.5 70.5z" />
    <glyph glyph-name="ccedilla" unicode="&#xe7;" horiz-adv-x="444" 
d="M414 122q-46 -125 -160 -132l-27 -44q23 9 47 9q71 0 71 -58q0 -91 -211 -88v24q156 3 156 56q0 29 -38 29q-30 0 -55 -12l-22 14l43 71q-80 10 -128 81t-48 182v7q0 118 55.5 192t146.5 74q119 0 167 -127l-56 -18q-20 49 -45.5 73t-67.5 24q-62 0 -98 -59t-36 -159v-4
q0 -100 36 -159.5t99 -59.5q41 0 68 24.5t49 76.5z" />
    <glyph glyph-name="egrave" unicode="&#xe8;" horiz-adv-x="459" 
d="M419 246h-313q1 -100 40.5 -153.5t107.5 -53.5q70 0 134 61l27 -39q-76 -71 -168 -71q-93 0 -149 70t-56 195v6q0 117 54 191.5t139 74.5q86 0 135 -73t49 -196v-12zM355 285q-11 197 -120 197q-57 0 -90.5 -53t-37.5 -144h248zM277 592h-45l-137 151h91z" />
    <glyph glyph-name="eacute" unicode="&#xe9;" horiz-adv-x="459" 
d="M419 246h-313q1 -100 40.5 -153.5t107.5 -53.5q70 0 134 61l27 -39q-76 -71 -168 -71q-93 0 -149 70t-56 195v6q0 117 54 191.5t139 74.5q86 0 135 -73t49 -196v-12zM355 285q-11 197 -120 197q-57 0 -90.5 -53t-37.5 -144h248zM365 743l-137 -151h-45l91 151h91z" />
    <glyph glyph-name="ecircumflex" unicode="&#xea;" horiz-adv-x="459" 
d="M419 246h-313q1 -100 40.5 -153.5t107.5 -53.5q70 0 134 61l27 -39q-76 -71 -168 -71q-93 0 -149 70t-56 195v6q0 117 54 191.5t139 74.5q86 0 135 -73t49 -196v-12zM355 285q-11 197 -120 197q-57 0 -90.5 -53t-37.5 -144h248zM387 582h-39l-116 107l-116 -107h-37
l124 158h60z" />
    <glyph glyph-name="edieresis" unicode="&#xeb;" horiz-adv-x="459" 
d="M419 246h-313q1 -100 40.5 -153.5t107.5 -53.5q70 0 134 61l27 -39q-76 -71 -168 -71q-93 0 -149 70t-56 195v6q0 117 54 191.5t139 74.5q86 0 135 -73t49 -196v-12zM355 285q-11 197 -120 197q-57 0 -90.5 -53t-37.5 -144h248zM359 592h-74v87h74v-87zM181 592h-74v87
h74v-87z" />
    <glyph glyph-name="igrave" unicode="&#xec;" horiz-adv-x="224" 
d="M145 0h-66v517h66v-517zM135 592h-45l-137 151h91z" />
    <glyph glyph-name="iacute" unicode="&#xed;" horiz-adv-x="224" 
d="M145 0h-66v517h66v-517zM271 743l-137 -151h-45l91 151h91z" />
    <glyph glyph-name="icircumflex" unicode="&#xee;" horiz-adv-x="224" 
d="M145 0h-66v517h66v-517zM266 588h-39l-116 107l-116 -107h-37l124 158h60z" />
    <glyph glyph-name="idieresis" unicode="&#xef;" horiz-adv-x="224" 
d="M145 0h-66v517h66v-517zM238 592h-74v87h74v-87zM60 592h-74v87h74v-87z" />
    <glyph glyph-name="eth" unicode="&#xf0;" horiz-adv-x="494" 
d="M449 273q0 -131 -54.5 -207t-148.5 -76q-93 0 -148.5 73t-55.5 191v7q0 118 53 191t141 73q97 0 149 -117h6q-13 128 -106 245l-115 -65v42l89 51q-30 35 -62 61l56 20q42 -45 53 -58l105 58v-42l-80 -45q118 -154 118 -390v-12zM383 254v7q0 101 -36 160.5t-101 59.5
t-101.5 -59t-36.5 -159v-7q0 -101 36.5 -160.5t101.5 -59.5t101 59t36 159z" />
    <glyph glyph-name="ntilde" unicode="&#xf1;" horiz-adv-x="493" 
d="M427 0h-66v391q0 82 -69 82q-77 0 -156 -127v-346h-66v503l66 23v-133h6q89 129 180 129q52 0 78.5 -31.5t26.5 -85.5v-405zM401 700q0 -107 -80 -107q-29 0 -79 28t-68 28q-41 0 -41 -54h-40q0 107 80 107q29 0 79 -28t68 -28q41 0 41 54h40z" />
    <glyph glyph-name="ograve" unicode="&#xf2;" horiz-adv-x="492" 
d="M449 256q0 -118 -55 -192t-148 -74t-148.5 73t-55.5 191v7q0 118 55.5 192t148.5 74t148 -73t55 -191v-7zM383 254v7q0 101 -36 160.5t-101 59.5t-101.5 -59t-36.5 -159v-7q0 -101 36.5 -160.5t101.5 -59.5t101 59t36 159zM288 592h-45l-137 151h91z" />
    <glyph glyph-name="oacute" unicode="&#xf3;" horiz-adv-x="492" 
d="M449 256q0 -118 -55 -192t-148 -74t-148.5 73t-55.5 191v7q0 118 55.5 192t148.5 74t148 -73t55 -191v-7zM383 254v7q0 101 -36 160.5t-101 59.5t-101.5 -59t-36.5 -159v-7q0 -101 36.5 -160.5t101.5 -59.5t101 59t36 159zM386 743l-137 -151h-45l91 151h91z" />
    <glyph glyph-name="ocircumflex" unicode="&#xf4;" horiz-adv-x="492" 
d="M449 256q0 -118 -55 -192t-148 -74t-148.5 73t-55.5 191v7q0 118 55.5 192t148.5 74t148 -73t55 -191v-7zM383 254v7q0 101 -36 160.5t-101 59.5t-101.5 -59t-36.5 -159v-7q0 -101 36.5 -160.5t101.5 -59.5t101 59t36 159zM400 582h-39l-116 107l-116 -107h-37l124 158
h60z" />
    <glyph glyph-name="otilde" unicode="&#xf5;" horiz-adv-x="492" 
d="M449 256q0 -118 -55 -192t-148 -74t-148.5 73t-55.5 191v7q0 118 55.5 192t148.5 74t148 -73t55 -191v-7zM383 254v7q0 101 -36 160.5t-101 59.5t-101.5 -59t-36.5 -159v-7q0 -101 36.5 -160.5t101.5 -59.5t101 59t36 159zM398 700q0 -107 -80 -107q-30 0 -80 28t-67 28
q-41 0 -41 -54h-40q0 107 80 107q30 0 80 -28t67 -28q41 0 41 54h40z" />
    <glyph glyph-name="odieresis" unicode="&#xf6;" horiz-adv-x="492" 
d="M449 256q0 -118 -55 -192t-148 -74t-148.5 73t-55.5 191v7q0 118 55.5 192t148.5 74t148 -73t55 -191v-7zM383 254v7q0 101 -36 160.5t-101 59.5t-101.5 -59t-36.5 -159v-7q0 -101 36.5 -160.5t101.5 -59.5t101 59t36 159zM372 592h-74v87h74v-87zM194 592h-74v87h74v-87
z" />
    <glyph glyph-name="divide" unicode="&#xf7;" horiz-adv-x="600" 
d="M350 557q0 -22 -14 -36t-36 -14t-36 14t-14 36t14 36.5t36 14.5t36 -14.5t14 -36.5zM554 325h-508v60h508v-60zM350 153q0 -22 -14 -36.5t-36 -14.5t-36 14.5t-14 36.5t14 36t36 14t36 -14t14 -36z" />
    <glyph glyph-name="oslash" unicode="&#xf8;" horiz-adv-x="492" 
d="M449 256q0 -118 -55 -192t-148 -74q-55 0 -101 30l-58 -115h-45l72 138q-72 74 -72 211v7q0 118 55.5 192t148.5 74q55 0 101 -30l58 115h44l-72 -139q72 -70 72 -210v-7zM387 254v7q0 105 -39 162l-182 -359q35 -30 80 -30q66 0 103.5 59.5t37.5 160.5zM324 452
q-33 31 -78 31q-66 0 -103.5 -59.5t-37.5 -160.5v-7q0 -107 38 -163z" />
    <glyph glyph-name="ugrave" unicode="&#xf9;" horiz-adv-x="493" 
d="M423 13l-66 -22v133h-6q-89 -129 -180 -129q-52 0 -78.5 31.5t-26.5 85.5v405h66v-391q0 -82 69 -82q78 0 156 127v346h66v-504zM286 592h-45l-137 151h91z" />
    <glyph glyph-name="uacute" unicode="&#xfa;" horiz-adv-x="493" 
d="M423 13l-66 -22v133h-6q-89 -129 -180 -129q-52 0 -78.5 31.5t-26.5 85.5v405h66v-391q0 -82 69 -82q78 0 156 127v346h66v-504zM385 743l-137 -151h-45l91 151h91z" />
    <glyph glyph-name="ucircumflex" unicode="&#xfb;" horiz-adv-x="493" 
d="M423 13l-66 -22v133h-6q-89 -129 -180 -129q-52 0 -78.5 31.5t-26.5 85.5v405h66v-391q0 -82 69 -82q78 0 156 127v346h66v-504zM400 588h-39l-116 107l-116 -107h-37l124 158h60z" />
    <glyph glyph-name="udieresis" unicode="&#xfc;" horiz-adv-x="493" 
d="M423 13l-66 -22v133h-6q-89 -129 -180 -129q-52 0 -78.5 31.5t-26.5 85.5v405h66v-391q0 -82 69 -82q78 0 156 127v346h66v-504zM372 592h-74v87h74v-87zM194 592h-74v87h74v-87z" />
    <glyph glyph-name="yacute" unicode="&#xfd;" horiz-adv-x="462" 
d="M436 517l-189 -581q-23 -70 -57.5 -99.5t-89.5 -29.5q-40 0 -77 17v54h21q19 -30 57 -30q53 0 82 80l19 54l-176 535h69l138 -455l138 455h65zM376 733l-137 -151h-45l91 151h91z" />
    <glyph glyph-name="thorn" unicode="&#xfe;" horiz-adv-x="513" 
d="M470 256q0 -124 -50.5 -195t-123.5 -71q-93 0 -154 121h-6v-299h-66v926l66 23v-357h6q33 61 68.5 91.5t87.5 30.5q76 0 124 -68.5t48 -194.5v-7zM405 257q0 112 -36.5 167t-92.5 55q-59 0 -100.5 -65.5t-41.5 -155.5q0 -89 41.5 -154.5t101.5 -65.5q55 0 91.5 56
t36.5 163z" />
    <glyph glyph-name="ydieresis" unicode="&#xff;" horiz-adv-x="462" 
d="M436 517l-189 -581q-23 -70 -57.5 -99.5t-89.5 -29.5q-40 0 -77 17v54h21q19 -30 57 -30q53 0 82 80l19 54l-176 535h69l138 -455l138 455h65zM357 592h-74v87h74v-87zM179 592h-74v87h74v-87z" />
    <glyph glyph-name="dotlessi" unicode="&#x131;" horiz-adv-x="224" 
d="M145 0h-66v517h66v-517z" />
    <glyph glyph-name="Lslash" unicode="&#x141;" horiz-adv-x="546" 
d="M528 0h-408v327l-92 -43v62l92 42v332h70v-302l148 69v-62l-148 -69v-297h338v-59z" />
    <glyph glyph-name="lslash" unicode="&#x142;" horiz-adv-x="295" 
d="M267 394l-87 -40v-354h-65v327l-87 -41v58l87 39v355l65 23v-350l87 41v-58z" />
    <glyph glyph-name="OE" unicode="&#x152;" horiz-adv-x="888" 
d="M849 0h-484q-151 0 -231.5 92.5t-80.5 261.5v10q0 169 82.5 262.5t234.5 93.5h467v-56h-325v-260h266v-55h-266v-293h337v-56zM442 56v608h-75q-114 0 -178 -76t-64 -218v-18q0 -144 63 -220t183 -76h71z" />
    <glyph glyph-name="oe" unicode="&#x153;" horiz-adv-x="802" 
d="M761 246h-313q1 -100 40.5 -153.5t107.5 -53.5q70 0 134 61l27 -39q-76 -71 -165 -71q-134 0 -171 146h-8q-19 -68 -61.5 -107t-107.5 -39q-92 0 -147 73t-55 191v7q0 118 55 192t146 74q65 0 108.5 -39.5t61.5 -108.5h8q18 69 58.5 108.5t99.5 39.5q84 0 133 -73
t49 -196v-12zM697 285q-11 197 -120 197q-56 0 -90 -53t-38 -144h248zM383 254v7q0 101 -36 160.5t-101 59.5t-101.5 -59t-36.5 -159v-7q0 -101 36.5 -160.5t101.5 -59.5t101 59t36 159z" />
    <glyph glyph-name="Scaron" unicode="&#x160;" horiz-adv-x="565" 
d="M517 183q0 -92 -65 -143.5t-162 -51.5q-188 0 -247 164l54 33q51 -141 194 -141q69 0 114 35.5t45 97.5q0 60 -36.5 95t-139.5 69q-115 37 -162 85.5t-47 127.5q0 75 57 126.5t149 51.5q161 0 221 -139l-53 -34q-56 117 -169 117q-64 0 -100.5 -34t-36.5 -82
q0 -56 36.5 -89.5t134.5 -66.5q120 -39 166.5 -89t46.5 -132zM424 942l-124 -158h-60l-124 158h39l116 -106l116 106h37z" />
    <glyph glyph-name="scaron" unicode="&#x161;" horiz-adv-x="407" 
d="M374 134q0 -68 -48 -105t-120 -37q-102 0 -176 62l30 42q68 -58 147 -58q47 0 77 23.5t30 65.5q0 40 -25.5 64t-95.5 49q-79 28 -113.5 63.5t-34.5 88.5q0 57 42.5 95t109.5 38q48 0 83.5 -12.5t76.5 -40.5l-31 -44q-64 51 -129 51q-44 0 -68 -23t-24 -58t26 -58t88 -45
q86 -30 120.5 -66.5t34.5 -94.5zM353 750l-124 -158h-60l-124 158h39l116 -106l116 106h37z" />
    <glyph glyph-name="Ydieresis" unicode="&#x178;" horiz-adv-x="616" 
d="M599 720l-255 -442v-278h-72v277l-255 443h78l216 -383l215 383h73zM435 761h-74v87h74v-87zM257 761h-74v87h74v-87z" />
    <glyph glyph-name="Zcaron" unicode="&#x17d;" horiz-adv-x="547" 
d="M510 0h-474v49l393 614h-374v57h455v-49l-393 -614h393v-57zM428 932l-124 -158h-60l-124 158h39l116 -106l116 106h37z" />
    <glyph glyph-name="zcaron" unicode="&#x17e;" horiz-adv-x="418" 
d="M386 0h-355v42l280 423h-265v48h340v-42l-280 -423h280v-48zM370 750l-124 -158h-60l-124 158h39l116 -106l116 106h37z" />
    <glyph glyph-name="florin" unicode="&#x192;" horiz-adv-x="442" 
d="M430 713l-9 -53q-35 13 -83 13q-33 0 -55 -20.5t-29 -60.5l-24 -133h128l-9 -51h-127l-86 -486q-20 -112 -130 -112q-34 0 -70 10l9 51q32 -9 58 -9q25 0 43 16.5t24 50.5l84 479h-102l8 51h103l24 136q23 131 149 131q52 0 94 -13z" />
    <glyph glyph-name="circumflex" unicode="&#x2c6;" 
d="M404 588h-39l-116 107l-116 -107h-37l124 158h60z" />
    <glyph glyph-name="caron" unicode="&#x2c7;" 
d="M404 750l-124 -158h-60l-124 158h39l116 -106l116 106h37z" />
    <glyph glyph-name="breve" unicode="&#x2d8;" 
d="M398 750q-4 -76 -42 -118.5t-106 -42.5t-106 42.5t-42 118.5h39q13 -109 109 -109t109 109h39z" />
    <glyph glyph-name="dotaccent" unicode="&#x2d9;" 
d="M288 592h-76v87h76v-87z" />
    <glyph glyph-name="ring" unicode="&#x2da;" 
d="M346 675q0 -39 -27 -64.5t-69 -25.5t-69 25.5t-27 64.5t27 64.5t69 25.5t69 -25.5t27 -64.5zM306 675q0 25 -16 41.5t-40 16.5t-40 -16.5t-16 -41.5t16 -41.5t40 -16.5t40 16.5t16 41.5z" />
    <glyph glyph-name="ogonek" unicode="&#x2db;" 
d="M371 -155q-64 -35 -122 -35q-44 0 -70.5 20t-26.5 55q0 62 90 115h39q-72 -52 -72 -106q0 -21 15 -34t39 -13q42 0 97 22z" />
    <glyph glyph-name="tilde" unicode="&#x2dc;" 
d="M404 700q0 -107 -80 -107q-30 0 -80 28t-67 28q-41 0 -41 -54h-40q0 107 80 107q30 0 80 -28t67 -28q41 0 41 54h40z" />
    <glyph glyph-name="hungarumlaut" unicode="&#x2dd;" 
d="M430 743l-137 -151h-44l91 151h90zM256 743l-137 -151h-43l91 151h89z" />
    <glyph glyph-name="Delta" unicode="&#x394;" 
d="M462 173l-23 -64l-175 79l21 -188h-70l21 188l-175 -79l-23 64l186 41l-132 144v4l132 144l-186 41l23 64l175 -79l-21 188h70l-21 -188l175 79l23 -64l-186 -41l132 -144v-4l-132 -144zM339 360l-89 135l-89 -135l89 -135z" />
    <glyph glyph-name="Delta" unicode="&#x2206;" 
d="M462 173l-23 -64l-175 79l21 -188h-70l21 188l-175 -79l-23 64l186 41l-132 144v4l132 144l-186 41l23 64l175 -79l-21 188h70l-21 -188l175 79l23 -64l-186 -41l132 -144v-4l-132 -144zM339 360l-89 135l-89 -135l89 -135z" />
    <glyph glyph-name="Omega" unicode="&#x3a9;" horiz-adv-x="600" 
d="M554 323h-508v64h508v-64z" />
    <glyph glyph-name="Omega" unicode="&#x2126;" horiz-adv-x="600" 
d="M554 323h-508v64h508v-64z" />
    <glyph glyph-name="pi" unicode="&#x3c0;" horiz-adv-x="835" 
d="M790 360q0 -158 -107.5 -265t-265.5 -107t-264.5 107t-106.5 265t107 265t265 107t265 -107t107 -265zM753 360q0 145 -96 242.5t-240 97.5t-239.5 -97.5t-95.5 -242.5t96 -242.5t240 -97.5t239.5 97.5t95.5 242.5zM575 446q0 -57 -37 -89t-105 -32h-67v-166h-55v406h126
q65 0 101.5 -31.5t36.5 -87.5zM520 445q0 36 -22.5 55.5t-65.5 19.5h-67v-151h69q86 0 86 76z" />
    <glyph glyph-name="endash" unicode="&#x2013;" 
d="M462 251h-424v59h424v-59z" />
    <glyph glyph-name="emdash" unicode="&#x2014;" horiz-adv-x="1000" 
d="M962 251h-924v59h924v-59z" />
    <glyph glyph-name="quoteleft" unicode="&#x2018;" horiz-adv-x="186" 
d="M143 505h-41l-70 215h78z" />
    <glyph glyph-name="quoteright" unicode="&#x2019;" horiz-adv-x="186" 
d="M153 720l-69 -215h-42l34 215h77z" />
    <glyph glyph-name="quotesinglbase" unicode="&#x201a;" horiz-adv-x="186" 
d="M142 96l-69 -215h-42l34 215h77z" />
    <glyph glyph-name="quotedblleft" unicode="&#x201c;" horiz-adv-x="334" 
d="M291 505h-41l-69 215h77zM143 505h-41l-70 215h77z" />
    <glyph glyph-name="quotedblright" unicode="&#x201d;" horiz-adv-x="334" 
d="M301 720l-69 -215h-41l33 215h77zM153 720l-70 -215h-41l34 215h77z" />
    <glyph glyph-name="quotedblbase" unicode="&#x201e;" horiz-adv-x="334" 
d="M290 96l-69 -215h-41l33 215h77zM142 96l-70 -215h-41l34 215h77z" />
    <glyph glyph-name="dagger" unicode="&#x2020;" horiz-adv-x="433" 
d="M401 465l-164 17l17 -137l-24 -345h-28l-23 345l17 137l-164 -17v59l164 -18l-17 214h75l-17 -214l164 18v-59z" />
    <glyph glyph-name="daggerdbl" unicode="&#x2021;" horiz-adv-x="463" 
d="M416 176l-165 18l18 -194h-75l18 194l-165 -18v59l165 -17l-17 142l17 142l-165 -17v59l165 -18l-18 194h75l-18 -194l165 18v-59l-165 17l17 -142l-17 -142l165 17v-59z" />
    <glyph glyph-name="bullet" unicode="&#x2022;" horiz-adv-x="361" 
d="M303 373q0 -52 -35.5 -87.5t-87.5 -35.5t-87.5 35.5t-35.5 87.5t35.5 87.5t87.5 35.5t87.5 -35.5t35.5 -87.5z" />
    <glyph glyph-name="ellipsis" unicode="&#x2026;" horiz-adv-x="589" 
d="M543 39q0 -20 -13 -33t-33 -13q-19 0 -32.5 13.5t-13.5 32.5q0 20 13 33t33 13t33 -13t13 -33zM341 39q0 -19 -13.5 -32.5t-32.5 -13.5q-20 0 -33.5 13t-13.5 33t13.5 33t33.5 13t33 -13t13 -33zM138 39q0 -20 -13 -33t-33 -13t-33 13.5t-13 32.5q0 20 13 33t33 13
t33 -13t13 -33z" />
    <glyph glyph-name="perthousand" unicode="&#x2030;" horiz-adv-x="1213" 
d="M1179 186q0 -86 -46.5 -139.5t-116.5 -53.5t-115.5 53t-45.5 140q0 86 46.5 139t116.5 53t115.5 -53t45.5 -139zM797 186q0 -86 -46.5 -139.5t-116.5 -53.5t-115.5 53t-45.5 140q0 86 46.5 139t116.5 53t115.5 -53t45.5 -139zM666 720l-231 -369l-208 -351h-63l232 369
l208 351h62zM358 534q0 -86 -46.5 -139t-116.5 -53t-115.5 53t-45.5 139t46.5 139.5t116.5 53.5t115.5 -53t45.5 -140zM1121 185q0 67 -28 106.5t-76 39.5t-76 -39t-28 -105q0 -67 28 -107t76 -40t76 39.5t28 105.5zM739 185q0 67 -28 106.5t-76 39.5t-76 -39t-28 -105
q0 -67 28 -107t76 -40t76 39.5t28 105.5zM300 533q0 67 -28 107t-76 40q-49 0 -77 -39.5t-28 -105.5q0 -67 28 -106.5t77 -39.5q48 0 76 39t28 105z" />
    <glyph glyph-name="guilsinglleft" unicode="&#x2039;" horiz-adv-x="265" 
d="M230 78h-45l-157 180l157 181h45l-126 -181z" />
    <glyph glyph-name="guilsinglright" unicode="&#x203a;" horiz-adv-x="265" 
d="M236 258l-157 -180h-45l126 180l-126 181h45z" />
    <glyph glyph-name="fraction" unicode="&#x2044;" horiz-adv-x="370" 
d="M407 735l-380 -750h-65l380 750h65z" />
    <glyph glyph-name="fraction" unicode="&#x2215;" horiz-adv-x="370" 
d="M407 735l-380 -750h-65l380 750h65z" />
    <glyph glyph-name="Euro" unicode="&#x20ac;" horiz-adv-x="579" 
d="M540 191q-32 -97 -87 -150t-146 -53q-118 0 -186 98t-68 267v13q0 169 68 267.5t188 98.5q166 0 226 -187l-56 -25q-26 79 -66 118t-103 39q-76 0 -122.5 -59.5t-59.5 -162.5h228v-45h-232q-2 -28 -2 -44v-11q0 -29 3 -55h231v-45h-227q15 -98 61.5 -155t121.5 -57
q125 0 174 169z" />
    <glyph glyph-name="trademark" unicode="&#x2122;" horiz-adv-x="780" 
d="M712 380h-41v300h-2l-106 -300h-48l-106 300h-2v-300h-42v340h73l100 -293h3l100 293h71v-340zM299 683h-110v-303h-44v303h-110v37h264v-37z" />
    <glyph glyph-name="partialdiff" unicode="&#x2202;" 
d="M462 173l-23 -64l-175 79l21 -188h-70l21 188l-175 -79l-23 64l186 41l-132 144v4l132 144l-186 41l23 64l175 -79l-21 188h70l-21 -188l175 79l23 -64l-186 -41l132 -144v-4l-132 -144zM339 360l-89 135l-89 -135l89 -135z" />
    <glyph glyph-name="product" unicode="&#x220f;" horiz-adv-x="835" 
d="M790 360q0 -158 -107.5 -265t-265.5 -107t-264.5 107t-106.5 265t107 265t265 107t265 -107t107 -265zM753 360q0 145 -96 242.5t-240 97.5t-239.5 -97.5t-95.5 -242.5t96 -242.5t240 -97.5t239.5 97.5t95.5 242.5zM581 162h-62l-114 175h-55v-175h-55v406h131
q65 0 101.5 -29.5t36.5 -84.5q0 -94 -101 -112zM509 453q0 71 -87 71h-73v-143h75q85 0 85 72z" />
    <glyph glyph-name="summation" unicode="&#x2211;" 
d="M462 173l-23 -64l-175 79l21 -188h-70l21 188l-175 -79l-23 64l186 41l-132 144v4l132 144l-186 41l23 64l175 -79l-21 188h70l-21 -188l175 79l23 -64l-186 -41l132 -144v-4l-132 -144zM339 360l-89 135l-89 -135l89 -135z" />
    <glyph glyph-name="minus" unicode="&#x2212;" 
d="M462 173l-23 -64l-175 79l21 -188h-70l21 188l-175 -79l-23 64l186 41l-132 144v4l132 144l-186 41l23 64l175 -79l-21 188h70l-21 -188l175 79l23 -64l-186 -41l132 -144v-4l-132 -144zM339 360l-89 135l-89 -135l89 -135z" />
    <glyph glyph-name="radical" unicode="&#x221a;" horiz-adv-x="562" 
d="M532 720l-263 -723h-74l-155 343h71l121 -282l227 662h73z" />
    <glyph glyph-name="infinity" unicode="&#x221e;" horiz-adv-x="831" 
d="M759 637h-81v85h81v-85zM752 0h-67v517h67v-517zM621 692q-36 19 -82 19q-70 0 -70 -86v-113h129v-48h-129v-464h-66v464h-216v-464h-66v464h-104v48h104v110q0 67 34.5 102t95.5 35q51 0 88 -13v-54q-36 19 -82 19q-70 0 -70 -86v-113h216v110q0 67 34.5 102t95.5 35
q51 0 88 -13v-54z" />
    <glyph glyph-name="integral" unicode="&#x222b;" 
d="M462 173l-23 -64l-175 79l21 -188h-70l21 188l-175 -79l-23 64l186 41l-132 144v4l132 144l-186 41l23 64l175 -79l-21 188h70l-21 -188l175 79l23 -64l-186 -41l132 -144v-4l-132 -144zM339 360l-89 135l-89 -135l89 -135z" />
    <glyph glyph-name="approxequal" unicode="&#x2248;" horiz-adv-x="600" 
d="M530 168l-43 -43l-187 191l-187 -191l-43 43l191 187l-191 187l43 43l187 -191l187 191l43 -43l-191 -187z" />
    <glyph glyph-name="notequal" unicode="&#x2260;" horiz-adv-x="607" 
d="M621 692q-36 19 -82 19q-70 0 -70 -86v-113h129v-48h-129v-464h-66v464h-216v-464h-66v464h-104v48h104v110q0 67 34.5 102t95.5 35q51 0 88 -13v-54q-36 19 -82 19q-70 0 -70 -86v-113h216v110q0 67 34.5 102t95.5 35q51 0 88 -13v-54z" />
    <glyph glyph-name="lessequal" unicode="&#x2264;" 
d="M462 173l-23 -64l-175 79l21 -188h-70l21 188l-175 -79l-23 64l186 41l-132 144v4l132 144l-186 41l23 64l175 -79l-21 188h70l-21 -188l175 79l23 -64l-186 -41l132 -144v-4l-132 -144zM339 360l-89 135l-89 -135l89 -135z" />
    <glyph glyph-name="greaterequal" unicode="&#x2265;" 
d="M462 173l-23 -64l-175 79l21 -188h-70l21 188l-175 -79l-23 64l186 41l-132 144v4l132 144l-186 41l23 64l175 -79l-21 188h70l-21 -188l175 79l23 -64l-186 -41l132 -144v-4l-132 -144zM339 360l-89 135l-89 -135l89 -135z" />
    <glyph glyph-name="lozenge" unicode="&#x25ca;" 
d="M462 173l-23 -64l-175 79l21 -188h-70l21 188l-175 -79l-23 64l186 41l-132 144v4l132 144l-186 41l23 64l175 -79l-21 188h70l-21 -188l175 79l23 -64l-186 -41l132 -144v-4l-132 -144zM339 360l-89 135l-89 -135l89 -135z" />
    <glyph glyph-name="apple" unicode="&#xf8ff;" 
d="M462 173l-23 -64l-175 79l21 -188h-70l21 188l-175 -79l-23 64l186 41l-132 144v4l132 144l-186 41l23 64l175 -79l-21 188h70l-21 -188l175 79l23 -64l-186 -41l132 -144v-4l-132 -144zM339 360l-89 135l-89 -135l89 -135z" />
    <glyph glyph-name="NUL" horiz-adv-x="0" 
 />
    </font>
</defs>
</svg>
